<svg width="385" height="129" viewBox="0 0 385 129" fill="none" xmlns="http://www.w3.org/2000/svg">
<path d="M104.92 125.089C104.63 128.151 104.58 128.163 93.49 128.503L82.34 128.843L77.79 122.526L73.23 116.197L66.29 118.226C47.72 123.68 28.06 118.226 15.68 104.219L10.63 98.4972L14.18 98.4486C16.13 98.4243 18.2 98.971 18.77 99.6634C19.5 100.55 20.2 100.38 21.06 99.1167C23.18 96.0068 21.4 94.9013 15.47 95.6424C10.72 96.2376 9.62 95.9947 8.48 94.0996C7.74 92.8726 7.13 91.4148 7.13 90.8803C7.13 90.3336 10.39 89.9084 14.38 89.9206L21.63 89.9327L30.96 100.854C39.04 110.305 40.75 111.763 43.75 111.763C45.76 111.763 48.47 112.893 50.21 114.46C53.8 117.679 56.45 116.428 56.95 111.265C57.58 104.863 52.94 102.275 49.13 106.904C45.18 111.702 42.32 110.22 32.63 98.4L23.67 87.4667H14.51C5.32 87.4667 4.13 86.8957 4.13 82.5102C4.13 81.8907 8.75 81.3926 14.41 81.3926H24.68L39.58 99.6148H51.25C60.7 99.6148 63.03 99.9671 63.49 101.437C63.83 102.494 65.32 103.259 67.06 103.259C70.88 103.259 72.85 99.469 71.25 95.205C69.99 91.84 65.14 91.2083 63.13 94.1482C62.16 95.5573 59.47 95.9704 51.12 95.9704H40.36L33.41 87.4667L26.45 78.963H14.82C4.35 78.963 3.1 78.7322 2.16 76.6062C0.609998 73.0833 2.08 72.5973 12.94 73.0711C21.04 73.4234 22.63 73.1926 22.63 71.6741C22.63 70.2527 21.58 69.9369 17.88 70.2527C13.34 70.6415 11.43 69.0744 14.63 67.5923C16.43 66.7541 16.63 60.6193 14.93 58.5541C13.05 56.2702 9.31 56.8412 8.1 59.5988C7.27 61.4696 6.2 62.0042 3.81 61.7247C1.18 61.4089 0.579999 60.7772 0.309999 58.0074L0 54.6667H26.13L26.14 60.437C26.15 73.229 31.01 83.227 40.01 88.9366C45.04 92.1194 53.72 93.6379 55.39 91.6092C55.72 91.2083 53.09 86.7013 49.56 81.587C46.03 76.4726 43.13 71.8685 43.13 71.3704C43.13 70.8723 48.71 70.4593 55.53 70.4593H67.94L70.88 74.9176L73.83 79.3882L75.73 73.3991C81.05 56.6468 74.94 35.9221 62.87 29.7994C53.23 24.9159 42.93 26.5073 35.04 34.0999C29.38 39.5544 29.85 41.3037 36.98 41.3037C41.6 41.3037 43.21 40.7813 44.67 38.8133C46.88 35.8492 51.89 36.0071 53.48 39.0806C55.28 42.5793 52.76 47.3778 49.12 47.3778C47.33 47.3778 45.83 46.6246 45.49 45.5556C45.01 44.0127 41.69 43.7333 24.19 43.7333C12.79 43.7333 3.21 43.4296 2.91 43.053C2.6 42.6886 2.58 41.3159 2.86 40.016C3.32 37.8536 4.32 37.6593 15.18 37.6593H27L37.26 25.5111H51.24C63.86 25.5111 65.48 25.7541 68.05 28.0622C70.37 30.1396 71.28 30.3582 73 29.2406C76.02 27.2726 76.92 21.9274 74.59 19.8501C71.98 17.5419 69.39 17.8335 67.4 20.6519C65.83 22.8871 64.45 23.0815 50.62 23.0815H35.55L30.63 29.1556L25.71 35.2296H15.42C4.83 35.2296 4.15 34.8652 6.17 30.2853C7.62 26.9932 14.28 27.1025 18.05 30.4919C21.71 33.7719 25.13 32.0468 25.13 26.9203C25.13 20.749 20.62 18.5016 17.4 23.0815C15.45 25.8513 10.13 26.4222 10.13 23.8711C10.13 20.8948 20.98 9.66993 27.38 6.03763C35.19 1.59141 41.98 0 53.06 0C68.4 0 79.41 5.18726 89.13 17.0074C98.84 28.8033 103.13 42.1905 103.13 60.7407C103.13 77.2501 99.67 89.9935 92.6 99.4933C90.71 102.032 89.46 104.462 89.81 104.899C90.17 105.337 93.76 105.689 97.8 105.689H105.13V119.052H89.68L83.01 111.01C79.34 106.588 75.84 103.174 75.22 103.429C74.6 103.672 77.49 107.973 81.64 112.99L89.18 122.089L97.2 122.052C105.2 122.016 105.22 122.028 104.92 125.089ZM180.63 99.299C173.75 103.454 163.07 100.575 157.38 93.0184C155.33 90.3093 153.18 88.6815 151.65 88.6815C147.76 88.6815 138.96 84.1988 134.94 80.1778C127.29 72.5001 123.45 56.5861 126.53 45.3004C130.66 30.2003 140.47 21.8667 154.11 21.8667C167.37 21.8667 175.12 26.8839 180.66 39.0442C183.27 44.7538 183.63 46.7461 183.61 55.2741C183.6 62.8545 183.12 66.0738 181.45 69.9005C179.27 74.8933 171.02 85.037 169.15 85.037C166.9 85.037 168.32 88.5236 171.04 89.6776C173.37 90.6616 174.76 90.4308 177.97 88.4993C181.77 86.2154 182.13 86.1911 184.56 88.1348C185.97 89.2525 187.13 90.8317 187.13 91.6456C187.13 93.3342 183.57 97.5253 180.63 99.299ZM305.19 85.3407C298.35 89.5562 292.45 89.6898 285.56 85.7902C270.99 77.5416 268.06 56.3553 279.77 43.8427C287.63 35.4362 299.13 34.5979 307.99 41.7896C314.46 47.0376 317.26 54.0714 316.85 64.0572C316.44 74.043 312.82 80.6394 305.19 85.3407ZM216.41 87.0415C207.67 91.4877 197.41 86.4462 194.2 76.1446C193.61 74.2738 193.13 64.8347 193.13 55.189V37.6593H204.13V69.4267L207.18 73.1319C209.8 76.3147 210.73 76.7277 213.87 76.1203C221.1 74.6868 223.07 69.0258 223.11 49.5037L223.13 37.6593H234.17L233.9 62.2593L233.63 86.8593H228.68C224.28 86.8593 223.66 86.5313 223.16 83.968C222.63 81.2225 222.51 81.1861 221.11 83.2391C220.3 84.4418 218.18 86.1547 216.41 87.0415ZM147.1 73.8C149.55 75.3064 153.16 76.5333 155.13 76.5333C157.1 76.5333 160.71 75.3064 163.16 73.8C177.63 64.9319 173.77 36.5295 157.81 34.3428C147.97 32.9944 141.62 37.1005 138.58 46.7582C135.27 57.2907 138.88 68.7585 147.1 73.8ZM255.13 74.043V87.4667H250.13C247.38 87.4667 245.12 87.333 245.1 87.163C245.08 86.9929 244.96 75.7923 244.84 62.2593L244.62 37.6593H249.87C255.12 37.6593 255.13 37.6714 255.13 41.5345V45.4098L257.27 42.6157C259.68 39.4693 265.02 36.4444 268.15 36.4444C270.04 36.4444 270.21 37.0519 269.93 42.8222L269.63 49.2L265.47 49.8803C257.15 51.2287 255.13 55.9544 255.13 74.043ZM357.14 80.4815L353.02 87.4667H347.57C344.26 87.4667 342.13 86.9443 342.13 86.1182C342.13 85.3893 343.42 82.7896 345 80.3479C346.58 77.9182 349.69 72.7553 351.92 68.88L355.97 61.8341L350.46 52.48C347.43 47.3292 344.32 42.2634 343.54 41.2065C341.24 38.0844 341.82 37.6593 348.38 37.6714L354.63 37.6836L358.53 45.021C360.67 49.0664 362.73 51.9333 363.1 51.3867C363.48 50.8522 365.47 47.5479 367.54 44.037C369.61 40.5262 371.94 37.6593 372.72 37.6593C373.49 37.6593 374.13 37.9265 374.13 38.2667C374.13 38.5947 371.17 44.3164 367.55 50.9858C363.41 58.6148 361.26 63.6806 361.75 64.6525C362.18 65.5028 365.18 70.7508 368.43 76.3147C374.02 85.8996 375.05 89.5319 371.37 86.7135C370.46 86.021 368.19 82.7532 366.32 79.4732C364.46 76.181 362.56 73.4963 362.1 73.4963C361.63 73.4963 359.4 76.6427 357.14 80.4815ZM335.13 37.5378V87.4667H325.13V63.7778C325.13 50.755 325.02 39.6759 324.88 39.1778C324.74 38.6797 326.99 38.0966 329.88 37.9022L335.13 37.5378ZM290.46 75.6708C294.5 78.1126 295.59 78.149 299.1 75.9502C310.5 68.7828 307.08 48.5926 294.46 48.5926C288.41 48.5926 285.1 52.3585 284.38 60.0483C283.71 67.325 285.88 72.901 290.46 75.6708ZM362.6 123.741C360.21 127.179 359.67 127.385 353.52 127.179C349.92 127.057 346.78 126.729 346.55 126.45C346.32 126.171 346.13 119.198 346.13 110.949V95.9704H348.63C350.87 95.9704 351.13 96.4563 351.13 100.757C351.13 105.531 351.14 105.531 354.58 104.863C360 103.794 362.71 105.191 364.6 110.026C366.61 115.177 366.09 118.687 362.6 123.741ZM333.32 126.219C328.6 129.293 323.13 126.098 323.13 120.267C323.13 116.039 324.27 115.055 330.13 114.229C333.23 113.78 334.63 113.014 334.63 111.763C334.63 110.39 333.47 109.953 329.91 110.014C325.1 110.087 322.6 107.62 325.35 105.507C327.9 103.539 336.72 104.34 338.48 106.697C340.82 109.844 340.86 126.073 338.53 127.167C337.65 127.568 336.58 127.228 336.16 126.389C335.57 125.247 334.88 125.211 333.32 126.219ZM320.95 124.215C320.65 126.778 320.09 126.972 311.88 127.3L303.13 127.653V97.1852H308.13V121.481H314.7C320.94 121.481 321.25 121.615 320.95 124.215ZM380.54 126.389C375.73 128.6 369.13 126.802 369.13 123.279C369.13 121.749 370.08 121.433 373.77 121.724C379 122.137 380.89 119.841 376.42 118.505C371.9 117.157 369.13 114.387 369.13 111.216C369.13 106.321 371.72 104.316 377.5 104.717C381.85 105.021 382.63 105.446 382.63 107.487C382.63 109.576 382.05 109.844 378.27 109.516C372.74 109.03 372.98 111.727 378.65 113.658C380.77 114.387 382.94 115.808 383.46 116.829C384.99 119.769 383.36 125.077 380.54 126.389ZM382.58 84.1259C384.15 87.0658 384.17 87.4667 382.78 87.4667C381.27 87.4667 369.99 70.3013 367.91 64.859C367.09 62.7087 368.04 60.2791 373.68 49.9775C378.15 41.8261 381.06 37.6593 382.27 37.6593C382.4 37.6593 382.53 37.6593 382.65 37.6471C383.04 37.635 383.34 37.6228 383.46 37.7929C383.85 38.3274 382.6 40.6356 377.48 50.0747C376.98 50.9979 376.44 51.9941 375.86 53.0631C373.26 57.8495 371.13 62.2714 371.13 62.891C371.13 63.4984 373.3 67.7745 375.96 72.3908C378.62 77.0071 381.6 82.2916 382.58 84.1259ZM83.63 99.5419C87.91 101.06 88.13 101.036 88.79 98.9224C89.71 96.019 87.57 94.0145 85.63 95.9704C83.91 97.7076 82.17 96.0676 72.37 83.5185C68.37 78.4042 67.38 77.7482 63.62 77.7482C61.07 77.7482 58.88 77.0193 58.13 75.9259C56.91 74.1402 53.13 73.3505 53.13 74.8812C53.13 75.3064 53.9 76.339 54.84 77.1772C56.31 78.477 56.36 78.9873 55.18 80.7002C53.05 83.8344 55.35 85.6687 57.61 82.6317C58.7 81.1739 60.7 80.1778 62.56 80.1778C65.12 80.1778 67.03 81.8299 73.16 89.3253C77.27 94.3668 81.98 98.9588 83.63 99.5419ZM26.85 46.163L25.9 52.237H1.13V46.163H26.85ZM27.13 19.68C27.13 21.6966 29.05 20.5061 32.43 16.4C35.6 12.549 36.46 12.1481 41.53 12.1481C45.8 12.1481 47.61 12.7313 49.13 14.5778C51.54 17.5055 53.45 17.6634 55.56 15.1001C58.02 12.1117 57.54 7.45896 54.61 5.84326C52.47 4.66489 51.63 4.84711 49.15 7.08237C46.94 9.06252 44.79 9.71852 40.46 9.71852C35.18 9.71852 34.41 10.083 30.92 14.2133C28.84 16.6916 27.13 19.1455 27.13 19.68ZM334.3 28.3659C328.7 34.5129 320.36 24.187 325.7 17.6999C327.56 15.4524 333.22 15.173 334.93 17.2504C336.75 19.4613 336.38 26.0821 334.3 28.3659ZM352.75 120.425C353.72 121.737 355.44 122.648 356.57 122.441C359.07 122.004 361.25 116.853 360.47 113.209C359.8 110.123 355.61 108.374 353.23 110.184C350.92 111.945 350.65 117.618 352.75 120.425ZM36.08 57.7766C34.42 60.2062 30.77 59.9633 28.78 57.3028C26.58 54.3508 26.7 51.8726 29.16 49.1636C33.53 44.365 39.86 52.237 36.08 57.7766ZM9.4 69.7182C9.07 70.1313 7.07 70.4593 4.96 70.4593C1.54 70.4593 1.13 70.1313 1.13 67.4222C1.13 64.7982 1.58 64.3852 4.39 64.3852C7.51 64.3852 10.86 67.9446 9.4 69.7182ZM328.13 120.267C328.13 123.049 331.92 123.68 333.93 121.239C335.94 118.797 335.29 117.837 331.63 117.837C328.8 117.837 328.13 118.299 328.13 120.267ZM31.34 55.6507C32.28 56.7926 32.85 56.744 33.96 55.3956C35.68 53.3061 34.7 51.0222 32.07 51.0222C29.89 51.0222 29.51 53.4276 31.34 55.6507ZM54.94 10.6175C54.59 12.8284 52.04 14.0554 50.83 12.5976C49.26 10.6904 50.26 8.5037 52.7 8.5037C54.61 8.5037 55.19 9.05037 54.94 10.6175ZM47.54 43.2839C48.36 45.8593 50.56 44.7173 50.95 41.5102C51.16 39.7973 50.74 38.8741 49.76 38.8741C47.81 38.8741 46.79 40.915 47.54 43.2839ZM68.79 98.9224C68.46 99.9671 67.71 100.83 67.13 100.83C65.51 100.83 64.72 97.1973 66 95.6424C67.51 93.808 69.63 96.2862 68.79 98.9224ZM54.95 110.147C54.52 112.844 52.7 113.464 51.29 111.386C49.93 109.394 50.74 108.119 53.37 108.119C54.61 108.119 55.16 108.823 54.95 110.147ZM72.95 23.8954C72.37 27.552 69.13 27.2119 69.13 23.4824C69.13 22.5956 70.06 21.8667 71.2 21.8667C72.6 21.8667 73.17 22.5227 72.95 23.8954ZM22.95 26.325C22.37 29.9816 19.13 29.6415 19.13 25.912C19.13 25.0252 20.06 24.2963 21.2 24.2963C22.6 24.2963 23.17 24.9523 22.95 26.325ZM13.95 62.7695C13.37 66.4261 10.13 66.0859 10.13 62.3565C10.13 61.4696 11.06 60.7407 12.2 60.7407C13.6 60.7407 14.17 61.3967 13.95 62.7695Z" fill="white"/>
</svg>
